<svg xmlns="http://www.w3.org/2000/svg" viewBox="0 0 600 600"><defs><style>.cls-1{fill:#89e872;}.cls-1,.cls-2,.cls-3,.cls-4,.cls-5,.cls-7{stroke:#000;stroke-width:3px;}.cls-1,.cls-2,.cls-3,.cls-4{stroke-linecap:round;stroke-linejoin:round;}.cls-2{fill:none;}.cls-3{fill:#e6f03c;}.cls-4,.cls-6{fill:#ffb991;}.cls-5{fill:#006b7d;}.cls-5,.cls-7{stroke-miterlimit:10;}.cls-7{fill:#fff;}</style></defs><g id="torso_left_hand_raised" data-name="torso left hand raised"><path class="cls-1" d="M395.91,674.46v-31.4a73.21,73.21,0,0,0,100,2.1V440.55a93.24,93.24,0,0,0-93.25-93.24H381.87l-68.31.59H224.25a53.28,53.28,0,0,1-52.65-45.28,73.31,73.31,0,0,1-112.7,13A155.22,155.22,0,0,0,213.48,456.91H243.4V674.46Z"/><path class="cls-2" d="M266.24,402.52h0a44,44,0,0,0-22.84,38.6v15.79"/><line class="cls-3" x1="395.91" y1="478.21" x2="395.91" y2="643.06"/></g><g id="neck"><path class="cls-4" d="M309.18,248.52V349h0c22.55,30.55,65.76,31.18,89.08,1.29l1.66-2.13V249"/></g><g id="ponytale"><path class="cls-5" d="M460.77,248.73c5.76,7.9,10.17,22.07-3.69,43.61-23.15,36-.05,75.35,23.15,74.47-14.1,24.84-78.51,18.49-86.39-39.84l-.5-3.71-.69-5.09-1-2.06c9.9-6,19.2-13.87,26-24.08,7.32-11,11.82-26.51,14.41-43.14l4.63-8.25c8.48-1.26,11.12,4.26,15.81.3l2.8.47,1.91,2.56Z"/></g><g id="face"><ellipse class="cls-6" cx="358.9" cy="211.04" rx="82.93" ry="116.04"/><path d="M358.9,96.5c44.9,0,81.43,51.38,81.43,114.54S403.8,325.58,358.9,325.58,277.47,274.2,277.47,211,314,96.5,358.9,96.5m0-3c-46.63,0-84.43,52.63-84.43,117.54s37.8,117.54,84.43,117.54S443.33,276,443.33,211,405.53,93.5,358.9,93.5Z"/></g><g id="left_eye_open" data-name="left eye open"><path d="M337.41,198.45c0,7-2.84,12.59-6.35,12.59s-6.35-5.64-6.35-12.59,2.85-12.59,6.35-12.59S337.41,191.5,337.41,198.45Z"/></g><g id="right_eye_open" data-name="right eye open"><path d="M391.29,198.45c0,7-2.85,12.59-6.35,12.59s-6.35-5.64-6.35-12.59,2.84-12.59,6.35-12.59S391.29,191.5,391.29,198.45Z"/></g><g id="right_eyebrow" data-name="right eyebrow"><path d="M380.93,166.1A14.72,14.72,0,0,1,396.42,171c1,1.18,2.66-.52,1.69-1.69a17.08,17.08,0,0,0-17.81-5.52,1.19,1.19,0,0,0,.63,2.3Z"/></g><g id="left_eyebrow" data-name="left eyebrow"><path d="M319.19,174.75a14.71,14.71,0,0,1,15.6-4.56,1.19,1.19,0,0,0,.63-2.29,17.06,17.06,0,0,0-17.91,5.16c-1,1.16.68,2.85,1.68,1.69Z"/></g><g id="nose"><path d="M354.58,217.69c-.25,1.34-2.12,2.5-3,3.45s-1.63,1.83-2.4,2.78c-.93,1.17-2.58,2.75-2.4,4.42.34,3.25,6.17,6.31,8.66,7.52,1.38.66,2.58-1.39,1.2-2.06a23.94,23.94,0,0,1-4.33-2.63,9,9,0,0,1-2.23-2c-1-1.76.05-2.68,1.18-4.06,1.66-2,5.12-4.17,5.62-6.81.28-1.5-2-2.14-2.3-.63Z"/></g><g id="smile"><path class="cls-7" d="M374.63,260.56l-1,4.48s-5.62,15.64-16.91,15.64S338.36,265,338.36,265l-1-4.48Z"/></g><g id="right_ear" data-name="right ear"><path class="cls-6" d="M439.9,199.85c2.58-7.21,4.58-13.74,4.58-13.74a7.45,7.45,0,0,1,1.35-2.17c.57-.36,6,.27,6.8.81s10,12.53,12,20.87a44,44,0,0,1-1.92,25.26c-1.48,4-3.55,7.85-6.8,10.56A22.33,22.33,0,0,1,444.08,246a9.5,9.5,0,0,1-4.94-.44,3.92,3.92,0,0,1-2.47-3.94"/><path d="M441.05,200.17c1.38-3.91,2.67-7.85,4-11.79.94-2.85,2-3.95,5.33-3,4.47,1.27,7.77,8.75,9.86,12.64,4.61,8.6,5.28,18.23,2.88,27.65-1.26,4.93-3.19,10.2-6.87,13.87a18.15,18.15,0,0,1-7.71,4.4c-2.51.76-10.41,2.79-10.64-2.29-.07-1.53-2.46-1.54-2.38,0,.55,11.76,19.64,3,23.66-1.84,8-9.63,10-26.41,5.51-37.91a64.1,64.1,0,0,0-7.78-13.66c-1.77-2.48-2.85-4.52-5.9-5.16s-5.74-1.12-7.29,2c-2.24,4.44-3.28,9.85-4.93,14.52-.51,1.44,1.79,2.07,2.3.63Z"/><path d="M449.48,208.91c3.17.48,3.37,5.25,3.28,7.65a16.66,16.66,0,0,1-2.6,8.18c-.8,1.31,1.26,2.51,2.06,1.2,2.68-4.39,6-18.09-2.11-19.33-1.5-.23-2.14,2.07-.63,2.3Z"/></g><g id="left_ear" data-name="left ear"><path class="cls-6" d="M280.42,205.47c-.78-7.64.24-14.79-1.62-22.24a4.81,4.81,0,0,0-1.14-2.43c-1.34-1.24-3.49-.6-5.11.24a36.78,36.78,0,0,0-17.19,20,46.12,46.12,0,0,0-1.17,26.58c1.05,4.33,2.72,8.63,5.77,11.87a23.38,23.38,0,0,0,11.74,6.25,9.89,9.89,0,0,0,5.2.17,4.13,4.13,0,0,0,3.08-3.81"/><path d="M281.61,205.47c-.47-5.6,2.64-29.38-8.22-26.08-10.13,3.07-17.7,15.18-20.26,24.77C250.23,215,250.75,230,258,239.08c3.82,4.79,21.22,14.43,23.09,3.35.25-1.5-2.05-2.14-2.3-.63-1.24,7.4-14.52.07-17-2.1-3.6-3.22-5.41-7.8-6.53-12.38a44.67,44.67,0,0,1,1.17-25.95,36.21,36.21,0,0,1,14.05-17.81c2.62-1.7,5.34-2.36,7.3.91,1.13,1.91.82,5.71.91,8,.18,4.35.09,8.69.46,13,.13,1.52,2.51,1.53,2.38,0Z"/><path d="M272,207.47c-8.73.5-7.07,14.73-4.69,19.95.64,1.39,2.69.18,2.06-1.21a17.69,17.69,0,0,1-1.66-8.32c.14-2.56,1-7.85,4.29-8,1.53-.08,1.54-2.47,0-2.38Z"/></g><g id="hand_left_raised" data-name="hand left raised"><path class="cls-2" d="M74.83,172.63q-.56,23.35.82,46.71"/><path class="cls-4" d="M171.6,302.62a53.28,53.28,0,0,1-.67-8V269.84a70.3,70.3,0,0,1,11.63-38.6l.11-.16c3.48-5.3,6.55-11.21,6.68-17.55a11.92,11.92,0,0,0-2.35-7.95,10.91,10.91,0,0,0-7.7-3.52,18.71,18.71,0,0,0-11.41,3.41l.23-4c.69-13.68.1-26.36-.66-40-.32-5.87-.83-11.9-3.43-17.18s-7.79-9.68-13.68-9.66-11.2,4.64-13.71,10.08a29,29,0,0,0-2.14,7.13c-.14,1.26-.25,2.52-.44,3.77l0-.5c.12-1.1.28-2.19.47-3.27.31-2.82.53-5.66.56-8.5.05-6.47-1.15-13.84-6.57-17.36-5.6-3.63-13.58-1.2-17.93,3.86s-5.8,12-6.31,18.64c-.3,3.82-.34,7.64-.29,11.47l0-1.35a37.49,37.49,0,0,0-1.52-12.11c-1.23-4-4-7.84-8-9.23-5.82-2-12.39,1.82-15.48,7.16s-3.53,11.75-3.79,17.9c-.15,3.44-.26,6.88-.35,10.32-2.15-3.79-5.79-6.22-10.15-5.92-3.81.25-7.11,3-8.91,6.43s-2.32,7.27-2.57,11.09c-1.44,21.62,4.49,41.81,5,63.48v54c0,4.71.25,9.36.66,14a73.31,73.31,0,0,0,112.7-13Z"/><path class="cls-2" d="M134.06,155.6c.19-1.25.3-2.51.44-3.77-.19,1.08-.35,2.17-.47,3.27Z"/><path class="cls-2" d="M104,159.94c0,1.91.06,3.82.1,5.73l1,42.13"/><path class="cls-2" d="M134,155.1c-.25,2.39-.35,4.8-.42,7.19q-.62,19.77.27,39.54"/><path class="cls-2" d="M75,175.11c-.25,2.39-.35,4.8-.42,7.19q-.63,19.77.27,39.54"/><path class="cls-2" d="M167.89,205.47c-.43.29-.85.6-1.25.91a37.76,37.76,0,0,0-8.76,10.42A28.44,28.44,0,0,0,140,220.35c-5.31,3.22-9.27,8.94-9.53,15.15"/><path class="cls-2" d="M73.25,222.54c8.81-6.61,54-18.79,65.63-20"/></g><g id="hair"><path class="cls-5" d="M387.29,168.26s0,4.85-1.15,6.24a10.84,10.84,0,0,1-3.61,2.39,8.28,8.28,0,0,1-5.91,1.2c-25.64-3.06-49.41-46.41-55.39-60.8-45.15,37.62-39.32,83.33-39.32,93L270,189.5l-1.41.08c-3.42-.53-7.5.29-9.59,3.77l-.61-.09C249,91.38,323.9,59,356.51,58.51S464.09,86.91,458,187.77l-1,6.36-14.64,2.19-4.17,14c0-7.64-.8-14.34-1.31-21.82A137.56,137.56,0,0,1,387.29,168.26Z"/><path d="M366.61,106.94c2.67,7.54,5.62,14.94,10.52,21.34s11.33,12.1,17.51,17.49c11.94,10.41,25,19.46,39.93,25,1.3.48,1.86-1.59.57-2.06-14.57-5.4-27.34-14.28-39-24.44a142.52,142.52,0,0,1-15.35-14.84c-5.78-6.81-9.17-14.69-12.12-23-.46-1.29-2.53-.73-2.07.57Z"/><path d="M342.14,116.23c2.12,5.27,4.26,10.57,7.41,15.32s7.21,9.09,11.12,13.35c8.12,8.85,16.45,17.5,26.54,24.12,1.15.76,2.23-1.09,1.08-1.85-9.46-6.2-17.32-14.25-25-22.53a131.79,131.79,0,0,1-11-12.76c-3.54-5-5.89-10.57-8.16-16.22-.51-1.26-2.58-.71-2.07.57Z"/></g></svg>